<svg width="280" height="280" xmlns="http://www.w3.org/2000/svg" xmlns:xlink="http://www.w3.org/1999/xlink"
  version="1.1" baseProfile="full" viewBox="0 0 100 100">
  <rect width="100" height="100" x="0" y="0" fill="none" />
  <path
    d="M50 0A50 50 0 0 0 0 50A50 50 0 0 0 50 100A50 50 0 0 0 100 50A50 50 0 0 0 50 0ZM46.7 22.1C55.8 22 64.9 26.8 69.3 35.9C73.1 43.6 73 50.9 68.9 59.4C66.9 63.5 66.9 63.8 67.9 66C68.8 67.9 70.9 69.2 73 69.2C74.9 69.2 77.8 66.8 78.2 64.8C78.6 62.9 77.4 60.2 75.7 59.1A42.1 42.1 0 0 1 74.1 58C73.5 57.6 75.8 56.4 77.1 56.4C80 56.4 82.3 58.6 82.9 61.8C83.1 63.2 83.4 63.6 84.7 63.9C88.3 64.8 90.1 70 87.8 72.7C86.9 73.9 86.9 73.9 86.6 72.9C85.5 69.6 83.8 68.2 80.7 68.2C79.4 68.2 78.3 68.8 76.2 70.6C72 74 68.4 76 64 77.4C58.7 79 52.6 79.3 47 78C38 76.2 29.4 69.2 25.1 60.3C19.8 49.1 21.4 37.5 29.3 29.5A24.7 24.7 0 0 1 46.7 22.1Z"
    fill="transparent" class="zr146-cls-961" />
  <g clip-path="url(#zr146-c0)">
    <path
      d="M-50 -25C-43.6 -30 -37.3 -35 -30 -35C-22.7 -35 -16.4 -30 -10 -25C-3.6 -20 2.7 -15 10 -15C17.3 -15 23.6 -20 30 -25C36.4 -30 42.7 -35 50 -35C57.3 -35 63.6 -30 70 -25C76.4 -20 82.7 -15 90 -15C97.3 -15 103.6 -20 110 -25C116.4 -30 122.7 -35 130 -35C137.3 -35 143.6 -30 150 -25L150 50L-50 50L-50 -25Z"
      transform="translate(50 50)" fill="#4fc08d" fill-opacity="0.95" filter="url(#zr146-s0)" ecmeta_series_index="0"
      ecmeta_data_index="0" ecmeta_ssr_type="chart" class="zr146-cls-963 zr146-cls-964" />
  </g>
  <g clip-path="url(#zr146-c1)">
    <path
      d="M-120 -10C-113.6 -15 -107.3 -20 -100 -20C-92.7 -20 -86.4 -15 -80 -10C-73.6 -5 -67.3 0 -60 0C-52.7 0 -46.4 -5 -40 -10C-33.6 -15 -27.3 -20 -20 -20C-12.7 -20 -6.4 -15 0 -10C6.4 -5 12.7 0 20 0C27.3 0 33.6 -5 40 -10C46.4 -15 52.7 -20 60 -20C67.3 -20 73.6 -15 80 -10L80 50L-120 50L-120 -10Z"
      transform="translate(50 50)" fill="#44d64a" fill-opacity="0.95" filter="url(#zr146-s0)" ecmeta_series_index="0"
      ecmeta_data_index="1" ecmeta_ssr_type="chart" class="zr146-cls-965 zr146-cls-966" />
  </g>
  <g clip-path="url(#zr146-c2)">
    <path
      d="M-110 -5C-103.6 -10 -97.3 -15 -90 -15C-82.7 -15 -76.4 -10 -70 -5C-63.6 0 -57.3 5 -50 5C-42.7 5 -36.4 0 -30 -5C-23.6 -10 -17.3 -15 -10 -15C-2.7 -15 3.6 -10 10 -5C16.4 0 22.7 5 30 5C37.3 5 43.6 0 50 -5C56.4 -10 62.7 -15 70 -15C77.3 -15 83.6 -10 90 -5L90 50L-110 50L-110 -5Z"
      transform="translate(50 50)" fill="#33c762" fill-opacity="0.95" filter="url(#zr146-s0)" ecmeta_series_index="0"
      ecmeta_data_index="2" ecmeta_ssr_type="chart" class="zr146-cls-967 zr146-cls-968" />
  </g>
  <g clip-path="url(#zr146-c3)">
    <path
      d="M-100 5C-93.6 0 -87.3 -5 -80 -5C-72.7 -5 -66.4 0 -60 5C-53.6 10 -47.3 15 -40 15C-32.7 15 -26.4 10 -20 5C-13.6 0 -7.3 -5 0 -5C7.3 -5 13.6 0 20 5C26.4 10 32.7 15 40 15C47.3 15 53.6 10 60 5C66.4 0 72.7 -5 80 -5C87.3 -5 93.6 0 100 5L100 50L-100 50L-100 5Z"
      transform="translate(50 50)" fill="#4acc80" fill-opacity="0.95" filter="url(#zr146-s0)" ecmeta_series_index="0"
      ecmeta_data_index="3" ecmeta_ssr_type="chart" class="zr146-cls-969 zr146-cls-970" />
  </g>
  <path
    d="M50 0A50 50 0 0 0 0 50A50 50 0 0 0 50 100A50 50 0 0 0 100 50A50 50 0 0 0 50 0ZM46.7 22.1C55.8 22 64.9 26.8 69.3 35.9C73.1 43.6 73 50.9 68.9 59.4C66.9 63.5 66.9 63.8 67.9 66C68.8 67.9 70.9 69.2 73 69.2C74.9 69.2 77.8 66.8 78.2 64.8C78.6 62.9 77.4 60.2 75.7 59.1A42.1 42.1 0 0 1 74.1 58C73.5 57.6 75.8 56.4 77.1 56.4C80 56.4 82.3 58.6 82.9 61.8C83.1 63.2 83.4 63.6 84.7 63.9C88.3 64.8 90.1 70 87.8 72.7C86.9 73.9 86.9 73.9 86.6 72.9C85.5 69.6 83.8 68.2 80.7 68.2C79.4 68.2 78.3 68.8 76.2 70.6C72 74 68.4 76 64 77.4C58.7 79 52.6 79.3 47 78C38 76.2 29.4 69.2 25.1 60.3C19.8 49.1 21.4 37.5 29.3 29.5A24.7 24.7 0 0 1 46.7 22.1Z"
    fill="transparent" class="zr146-cls-971" />
  <defs>
    <clipPath id="zr146-c0">
      <path
        d="M50 0A50 50 0 0 0 0 50A50 50 0 0 0 50 100A50 50 0 0 0 100 50A50 50 0 0 0 50 0ZM46.7 22.1C55.8 22 64.9 26.8 69.3 35.9C73.1 43.6 73 50.9 68.9 59.4C66.9 63.5 66.9 63.8 67.9 66C68.8 67.9 70.9 69.2 73 69.2C74.9 69.2 77.8 66.8 78.2 64.8C78.6 62.9 77.4 60.2 75.7 59.1A42.1 42.1 0 0 1 74.1 58C73.5 57.6 75.8 56.4 77.1 56.4C80 56.4 82.3 58.6 82.9 61.8C83.1 63.2 83.4 63.6 84.7 63.9C88.3 64.8 90.1 70 87.8 72.7C86.9 73.9 86.9 73.9 86.6 72.9C85.5 69.6 83.8 68.2 80.7 68.2C79.4 68.2 78.3 68.8 76.2 70.6C72 74 68.4 76 64 77.4C58.7 79 52.6 79.3 47 78C38 76.2 29.4 69.2 25.1 60.3C19.8 49.1 21.4 37.5 29.3 29.5A24.7 24.7 0 0 1 46.7 22.1Z"
        fill="white" class="zr146-cls-962" />
    </clipPath>
    <filter id="zr146-s0" x="-100%" y="-100%" width="300%" height="300%">
      <feDropShadow dx="0" dy="0" stdDeviation="6 6" flood-color="rgb(150,150,150)" flood-opacity="0.5" />
    </filter>
    <clipPath id="zr146-c1">
      <path
        d="M50 0A50 50 0 0 0 0 50A50 50 0 0 0 50 100A50 50 0 0 0 100 50A50 50 0 0 0 50 0ZM46.7 22.1C55.8 22 64.9 26.8 69.3 35.9C73.1 43.6 73 50.9 68.9 59.4C66.9 63.5 66.9 63.8 67.9 66C68.8 67.9 70.9 69.2 73 69.2C74.9 69.2 77.8 66.8 78.2 64.8C78.6 62.9 77.4 60.2 75.7 59.1A42.1 42.1 0 0 1 74.1 58C73.5 57.6 75.8 56.4 77.1 56.4C80 56.4 82.3 58.6 82.9 61.8C83.1 63.2 83.4 63.6 84.7 63.9C88.3 64.8 90.1 70 87.8 72.7C86.9 73.9 86.9 73.9 86.6 72.9C85.5 69.6 83.8 68.2 80.7 68.2C79.4 68.2 78.3 68.8 76.2 70.6C72 74 68.4 76 64 77.4C58.7 79 52.6 79.3 47 78C38 76.2 29.4 69.2 25.1 60.3C19.8 49.1 21.4 37.5 29.3 29.5A24.7 24.7 0 0 1 46.7 22.1Z"
        fill="white" class="zr146-cls-962" />
    </clipPath>
    <clipPath id="zr146-c2">
      <path
        d="M50 0A50 50 0 0 0 0 50A50 50 0 0 0 50 100A50 50 0 0 0 100 50A50 50 0 0 0 50 0ZM46.7 22.1C55.8 22 64.9 26.8 69.3 35.9C73.1 43.6 73 50.9 68.9 59.4C66.9 63.5 66.9 63.8 67.9 66C68.8 67.9 70.9 69.2 73 69.2C74.9 69.2 77.8 66.8 78.2 64.8C78.6 62.9 77.4 60.2 75.7 59.1A42.1 42.1 0 0 1 74.1 58C73.5 57.6 75.8 56.4 77.1 56.4C80 56.4 82.3 58.6 82.9 61.8C83.1 63.2 83.4 63.6 84.7 63.9C88.3 64.8 90.1 70 87.8 72.7C86.9 73.9 86.9 73.9 86.6 72.9C85.5 69.6 83.8 68.2 80.7 68.2C79.4 68.2 78.3 68.8 76.2 70.6C72 74 68.4 76 64 77.4C58.7 79 52.6 79.3 47 78C38 76.2 29.4 69.2 25.1 60.3C19.8 49.1 21.4 37.5 29.3 29.5A24.7 24.7 0 0 1 46.7 22.1Z"
        fill="white" class="zr146-cls-962" />
    </clipPath>
    <clipPath id="zr146-c3">
      <path
        d="M50 0A50 50 0 0 0 0 50A50 50 0 0 0 50 100A50 50 0 0 0 100 50A50 50 0 0 0 50 0ZM46.7 22.1C55.8 22 64.9 26.8 69.3 35.9C73.1 43.6 73 50.9 68.9 59.4C66.9 63.5 66.9 63.8 67.9 66C68.8 67.9 70.9 69.2 73 69.2C74.9 69.2 77.8 66.8 78.2 64.8C78.6 62.9 77.4 60.2 75.7 59.1A42.1 42.1 0 0 1 74.1 58C73.5 57.6 75.8 56.4 77.1 56.4C80 56.4 82.3 58.6 82.9 61.8C83.1 63.2 83.4 63.6 84.7 63.9C88.3 64.8 90.1 70 87.8 72.7C86.9 73.9 86.9 73.9 86.6 72.9C85.5 69.6 83.8 68.2 80.7 68.2C79.4 68.2 78.3 68.8 76.2 70.6C72 74 68.4 76 64 77.4C58.7 79 52.6 79.3 47 78C38 76.2 29.4 69.2 25.1 60.3C19.8 49.1 21.4 37.5 29.3 29.5A24.7 24.7 0 0 1 46.7 22.1Z"
        fill="white" class="zr146-cls-962" />
    </clipPath>
  </defs>
  <style>
    .zr146-cls-961:hover {
      cursor: pointer;
      fill: rgba(0, 0, 0, 0);
    }

    .zr146-cls-962:hover {
      cursor: pointer;
      fill: rgba(255, 255, 255, 1);
    }

    .zr146-cls-963 {
      animation:
        zr146-ani-0 2s linear both,
        zr146-ani-1 5s linear infinite both;
    }

    .zr146-cls-964:hover {
      cursor: pointer;
      fill: rgba(86, 211, 155, 1);
    }

    .zr146-cls-965 {
      animation:
        zr146-ani-2 2s linear both,
        zr146-ani-3 4s linear infinite both;
    }

    .zr146-cls-966:hover {
      cursor: pointer;
      fill: rgba(74, 235, 81, 1);
    }

    .zr146-cls-967 {
      animation:
        zr146-ani-4 2s linear both,
        zr146-ani-5 3.0000000000000004s linear infinite both;
    }

    .zr146-cls-968:hover {
      cursor: pointer;
      fill: rgba(56, 218, 107, 1);
    }

    .zr146-cls-969 {
      animation:
        zr146-ani-6 2s linear both,
        zr146-ani-7 2s linear infinite both;
    }

    .zr146-cls-970:hover {
      cursor: pointer;
      fill: rgba(81, 224, 140, 1);
    }

    .zr146-cls-971:hover {
      cursor: pointer;
    }

    @keyframes zr146-ani-0 {
      0% {
        d: path('M-50 50C-43.6 45 -37.3 40 -30 40C-22.7 40 -16.4 45 -10 50C-3.6 55 2.7 60 10 60C17.3 60 23.6 55 30 50C36.4 45 42.7 40 50 40C57.3 40 63.6 45 70 50C76.4 55 82.7 60 90 60C97.3 60 103.6 55 110 50C116.4 45 122.7 40 130 40C137.3 40 143.6 45 150 50L-50 50Z'
          );
      }

      100% {
        d: path('M-50 -25C-43.6 -30 -37.3 -35 -30 -35C-22.7 -35 -16.4 -30 -10 -25C-3.6 -20 2.7 -15 10 -15C17.3 -15 23.6 -20 30 -25C36.4 -30 42.7 -35 50 -35C57.3 -35 63.6 -30 70 -25C76.4 -20 82.7 -15 90 -15C97.3 -15 103.6 -20 110 -25C116.4 -30 122.7 -35 130 -35C137.3 -35 143.6 -30 150 -25L150 50L-50 50L-50 -25Z'
          );
      }
    }

    @keyframes zr146-ani-1 {
      0% {
        d: path('M-50 -25C-43.6 -30 -37.3 -35 -30 -35C-22.7 -35 -16.4 -30 -10 -25C-3.6 -20 2.7 -15 10 -15C17.3 -15 23.6 -20 30 -25C36.4 -30 42.7 -35 50 -35C57.3 -35 63.6 -30 70 -25C76.4 -20 82.7 -15 90 -15C97.3 -15 103.6 -20 110 -25C116.4 -30 122.7 -35 130 -35C137.3 -35 143.6 -30 150 -25L150 50L-50 50L-50 -25Z'
          );
      }

      50% {
        d: path('M-90 -25C-83.6 -30 -77.3 -35 -70 -35C-62.7 -35 -56.4 -30 -50 -25C-43.6 -20 -37.3 -15 -30 -15C-22.7 -15 -16.4 -20 -10 -25C-3.6 -30 2.7 -35 10 -35C17.3 -35 23.6 -30 30 -25C36.4 -20 42.7 -15 50 -15C57.3 -15 63.6 -20 70 -25C76.4 -30 82.7 -35 90 -35C97.3 -35 103.6 -30 110 -25L110 50L-90 50L-90 -25Z'
          );
      }

      100% {
        d: path('M-50 -25C-43.6 -30 -37.3 -35 -30 -35C-22.7 -35 -16.4 -30 -10 -25C-3.6 -20 2.7 -15 10 -15C17.3 -15 23.6 -20 30 -25C36.4 -30 42.7 -35 50 -35C57.3 -35 63.6 -30 70 -25C76.4 -20 82.7 -15 90 -15C97.3 -15 103.6 -20 110 -25C116.4 -30 122.7 -35 130 -35C137.3 -35 143.6 -30 150 -25L150 50L-50 50L-50 -25Z'
          );
      }
    }

    @keyframes zr146-ani-2 {
      0% {
        d: path('M-120 50C-113.6 45 -107.3 40 -100 40C-92.7 40 -86.4 45 -80 50C-73.6 55 -67.3 60 -60 60C-52.7 60 -46.4 55 -40 50C-33.6 45 -27.3 40 -20 40C-12.7 40 -6.4 45 0 50C6.4 55 12.7 60 20 60C27.3 60 33.6 55 40 50C46.4 45 52.7 40 60 40C67.3 40 73.6 45 80 50L-120 50Z'
          );
      }

      100% {
        d: path('M-120 -10C-113.6 -15 -107.3 -20 -100 -20C-92.7 -20 -86.4 -15 -80 -10C-73.6 -5 -67.3 0 -60 0C-52.7 0 -46.4 -5 -40 -10C-33.6 -15 -27.3 -20 -20 -20C-12.7 -20 -6.4 -15 0 -10C6.4 -5 12.7 0 20 0C27.3 0 33.6 -5 40 -10C46.4 -15 52.7 -20 60 -20C67.3 -20 73.6 -15 80 -10L80 50L-120 50L-120 -10Z'
          );
      }
    }

    @keyframes zr146-ani-3 {
      0% {
        d: path('M-120 -10C-113.6 -15 -107.3 -20 -100 -20C-92.7 -20 -86.4 -15 -80 -10C-73.6 -5 -67.3 0 -60 0C-52.7 0 -46.4 -5 -40 -10C-33.6 -15 -27.3 -20 -20 -20C-12.7 -20 -6.4 -15 0 -10C6.4 -5 12.7 0 20 0C27.3 0 33.6 -5 40 -10C46.4 -15 52.7 -20 60 -20C67.3 -20 73.6 -15 80 -10L80 50L-120 50L-120 -10Z'
          );
      }

      50% {
        d: path('M-80 -10C-73.6 -15 -67.3 -20 -60 -20C-52.7 -20 -46.4 -15 -40 -10C-33.6 -5 -27.3 0 -20 0C-12.7 0 -6.4 -5 0 -10C6.4 -15 12.7 -20 20 -20C27.3 -20 33.6 -15 40 -10C46.4 -5 52.7 0 60 0C67.3 0 73.6 -5 80 -10C86.4 -15 92.7 -20 100 -20C107.3 -20 113.6 -15 120 -10L120 50L-80 50L-80 -10Z'
          );
      }

      100% {
        d: path('M-120 -10C-113.6 -15 -107.3 -20 -100 -20C-92.7 -20 -86.4 -15 -80 -10C-73.6 -5 -67.3 0 -60 0C-52.7 0 -46.4 -5 -40 -10C-33.6 -15 -27.3 -20 -20 -20C-12.7 -20 -6.4 -15 0 -10C6.4 -5 12.7 0 20 0C27.3 0 33.6 -5 40 -10C46.4 -15 52.7 -20 60 -20C67.3 -20 73.6 -15 80 -10L80 50L-120 50L-120 -10Z'
          );
      }
    }

    @keyframes zr146-ani-4 {
      0% {
        d: path('M-110 50C-103.6 45 -97.3 40 -90 40C-82.7 40 -76.4 45 -70 50C-63.6 55 -57.3 60 -50 60C-42.7 60 -36.4 55 -30 50C-23.6 45 -17.3 40 -10 40C-2.7 40 3.6 45 10 50C16.4 55 22.7 60 30 60C37.3 60 43.6 55 50 50C56.4 45 62.7 40 70 40C77.3 40 83.6 45 90 50L-110 50Z'
          );
      }

      100% {
        d: path('M-110 -5C-103.6 -10 -97.3 -15 -90 -15C-82.7 -15 -76.4 -10 -70 -5C-63.6 0 -57.3 5 -50 5C-42.7 5 -36.4 0 -30 -5C-23.6 -10 -17.3 -15 -10 -15C-2.7 -15 3.6 -10 10 -5C16.4 0 22.7 5 30 5C37.3 5 43.6 0 50 -5C56.4 -10 62.7 -15 70 -15C77.3 -15 83.6 -10 90 -5L90 50L-110 50L-110 -5Z'
          );
      }
    }

    @keyframes zr146-ani-5 {
      0% {
        d: path('M-110 -5C-103.6 -10 -97.3 -15 -90 -15C-82.7 -15 -76.4 -10 -70 -5C-63.6 0 -57.3 5 -50 5C-42.7 5 -36.4 0 -30 -5C-23.6 -10 -17.3 -15 -10 -15C-2.7 -15 3.6 -10 10 -5C16.4 0 22.7 5 30 5C37.3 5 43.6 0 50 -5C56.4 -10 62.7 -15 70 -15C77.3 -15 83.6 -10 90 -5L90 50L-110 50L-110 -5Z'
          );
      }

      50% {
        d: path('M-70 -5C-63.6 -10 -57.3 -15 -50 -15C-42.7 -15 -36.4 -10 -30 -5C-23.6 0 -17.3 5 -10 5C-2.7 5 3.6 0 10 -5C16.4 -10 22.7 -15 30 -15C37.3 -15 43.6 -10 50 -5C56.4 0 62.7 5 70 5C77.3 5 83.6 0 90 -5C96.4 -10 102.7 -15 110 -15C117.3 -15 123.6 -10 130 -5L130 50L-70 50L-70 -5Z'
          );
      }

      100% {
        d: path('M-110 -5C-103.6 -10 -97.3 -15 -90 -15C-82.7 -15 -76.4 -10 -70 -5C-63.6 0 -57.3 5 -50 5C-42.7 5 -36.4 0 -30 -5C-23.6 -10 -17.3 -15 -10 -15C-2.7 -15 3.6 -10 10 -5C16.4 0 22.7 5 30 5C37.3 5 43.6 0 50 -5C56.4 -10 62.7 -15 70 -15C77.3 -15 83.6 -10 90 -5L90 50L-110 50L-110 -5Z'
          );
      }
    }

    @keyframes zr146-ani-6 {
      0% {
        d: path('M-100 50C-93.6 45 -87.3 40 -80 40C-72.7 40 -66.4 45 -60 50C-53.6 55 -47.3 60 -40 60C-32.7 60 -26.4 55 -20 50C-13.6 45 -7.3 40 0 40C7.3 40 13.6 45 20 50C26.4 55 32.7 60 40 60C47.3 60 53.6 55 60 50C66.4 45 72.7 40 80 40C87.3 40 93.6 45 100 50L-100 50Z'
          );
      }

      100% {
        d: path('M-100 5C-93.6 0 -87.3 -5 -80 -5C-72.7 -5 -66.4 0 -60 5C-53.6 10 -47.3 15 -40 15C-32.7 15 -26.4 10 -20 5C-13.6 0 -7.3 -5 0 -5C7.3 -5 13.6 0 20 5C26.4 10 32.7 15 40 15C47.3 15 53.6 10 60 5C66.4 0 72.7 -5 80 -5C87.3 -5 93.6 0 100 5L100 50L-100 50L-100 5Z'
          );
      }
    }

    @keyframes zr146-ani-7 {
      0% {
        d: path('M-100 5C-93.6 0 -87.3 -5 -80 -5C-72.7 -5 -66.4 0 -60 5C-53.6 10 -47.3 15 -40 15C-32.7 15 -26.4 10 -20 5C-13.6 0 -7.3 -5 0 -5C7.3 -5 13.6 0 20 5C26.4 10 32.7 15 40 15C47.3 15 53.6 10 60 5C66.4 0 72.7 -5 80 -5C87.3 -5 93.6 0 100 5L100 50L-100 50L-100 5Z'
          );
      }

      50% {
        d: path('M-60 5C-53.6 0 -47.3 -5 -40 -5C-32.7 -5 -26.4 0 -20 5C-13.6 10 -7.3 15 0 15C7.3 15 13.6 10 20 5C26.4 0 32.7 -5 40 -5C47.3 -5 53.6 0 60 5C66.4 10 72.7 15 80 15C87.3 15 93.6 10 100 5C106.4 0 112.7 -5 120 -5C127.3 -5 133.6 0 140 5L140 50L-60 50L-60 5Z'
          );
      }

      100% {
        d: path('M-100 5C-93.6 0 -87.3 -5 -80 -5C-72.7 -5 -66.4 0 -60 5C-53.6 10 -47.3 15 -40 15C-32.7 15 -26.4 10 -20 5C-13.6 0 -7.3 -5 0 -5C7.3 -5 13.6 0 20 5C26.4 10 32.7 15 40 15C47.3 15 53.6 10 60 5C66.4 0 72.7 -5 80 -5C87.3 -5 93.6 0 100 5L100 50L-100 50L-100 5Z'
          );
      }
    }
  </style>
</svg>